<mxfile host="65bd71144e">
    <diagram id="9KsqMLfg0GA0BvM3fP7k" name="Informes">
        <mxGraphModel dx="713" dy="535" grid="1" gridSize="10" guides="1" tooltips="1" connect="1" arrows="1" fold="1" page="1" pageScale="1" pageWidth="850" pageHeight="1100" math="0" shadow="0">
            <root>
                <mxCell id="0"/>
                <mxCell id="1" parent="0"/>
                <mxCell id="2" value="" style="rounded=0;whiteSpace=wrap;html=1;" vertex="1" parent="1">
                    <mxGeometry x="30" width="580" height="360" as="geometry"/>
                </mxCell>
                <mxCell id="3" value="JosÃ©:&lt;br&gt;GenerarInformesVentas" style="shape=umlActor;verticalLabelPosition=bottom;verticalAlign=top;html=1;outlineConnect=0;" vertex="1" parent="1">
                    <mxGeometry x="70" y="20" width="70" height="120" as="geometry"/>
                </mxCell>
                <mxCell id="4" value="losPedidos:pedidos" style="rounded=1;whiteSpace=wrap;html=1;" vertex="1" parent="1">
                    <mxGeometry x="420" y="30" width="120" height="60" as="geometry"/>
                </mxCell>
                <mxCell id="6" value="GenerarInformesVentas(fechaDesde, fechaHasta, criterio)" style="text;html=1;align=center;verticalAlign=middle;resizable=0;points=[];autosize=1;strokeColor=none;" vertex="1" parent="1">
                    <mxGeometry x="125" y="200" width="330" height="20" as="geometry"/>
                </mxCell>
                <mxCell id="7" value="" style="endArrow=none;html=1;strokeWidth=5;" edge="1" parent="1">
                    <mxGeometry width="50" height="50" relative="1" as="geometry">
                        <mxPoint x="105" y="330" as="sourcePoint"/>
                        <mxPoint x="104.57999999999993" y="190" as="targetPoint"/>
                    </mxGeometry>
                </mxCell>
                <mxCell id="8" value="" style="endArrow=classic;html=1;strokeWidth=1;" edge="1" parent="1">
                    <mxGeometry width="50" height="50" relative="1" as="geometry">
                        <mxPoint x="110" y="200" as="sourcePoint"/>
                        <mxPoint x="480" y="200" as="targetPoint"/>
                    </mxGeometry>
                </mxCell>
                <mxCell id="9" value="" style="endArrow=none;html=1;strokeWidth=5;" edge="1" parent="1">
                    <mxGeometry width="50" height="50" relative="1" as="geometry">
                        <mxPoint x="480" y="300" as="sourcePoint"/>
                        <mxPoint x="480" y="190" as="targetPoint"/>
                    </mxGeometry>
                </mxCell>
                <mxCell id="10" value="" style="endArrow=none;dashed=1;html=1;dashPattern=1 3;strokeWidth=2;" edge="1" parent="1">
                    <mxGeometry width="50" height="50" relative="1" as="geometry">
                        <mxPoint x="480" y="230" as="sourcePoint"/>
                        <mxPoint x="480" y="90" as="targetPoint"/>
                    </mxGeometry>
                </mxCell>
                <mxCell id="11" value="1:Ok Para&amp;nbsp;&lt;span style=&quot;text-align: center&quot;&gt;Generar&lt;br&gt;InformesVentas&lt;/span&gt;" style="text;html=1;align=left;verticalAlign=middle;resizable=0;points=[];autosize=1;strokeColor=none;" vertex="1" parent="1">
                    <mxGeometry x="490" y="170" width="120" height="30" as="geometry"/>
                </mxCell>
                <mxCell id="12" value="" style="curved=1;endArrow=classic;html=1;strokeWidth=1;exitX=0;exitY=1;exitDx=0;exitDy=0;exitPerimeter=0;" edge="1" parent="1" source="11">
                    <mxGeometry width="50" height="50" relative="1" as="geometry">
                        <mxPoint x="520" y="240" as="sourcePoint"/>
                        <mxPoint x="490" y="220" as="targetPoint"/>
                        <Array as="points">
                            <mxPoint x="560" y="210"/>
                        </Array>
                    </mxGeometry>
                </mxCell>
                <mxCell id="26" value="" style="endArrow=classic;html=1;strokeWidth=1;dashed=1;" edge="1" parent="1">
                    <mxGeometry width="50" height="50" relative="1" as="geometry">
                        <mxPoint x="480" y="300" as="sourcePoint"/>
                        <mxPoint x="110" y="300" as="targetPoint"/>
                    </mxGeometry>
                </mxCell>
            </root>
        </mxGraphModel>
    </diagram>
</mxfile>